HIERARCHY
ROOT Pelvis
{
	OFFSET 0.000000 0.000000 0.000000
	CHANNELS 6 Xposition Yposition Zposition Xrotation Yrotation Zrotation
	JOINT LeftUpLeg_virtual
	{
		OFFSET 0.000000 0.000000 0.000000
		CHANNELS 3 Xrotation Yrotation Zrotation
		JOINT LeftUpLeg
		{
			OFFSET 18.735201 -5.666702 -4.541200
			CHANNELS 3 Xrotation Yrotation Zrotation
			JOINT LeftLeg
			{
				OFFSET -0.021200 -31.938179 0.493100
				CHANNELS 3 Xrotation Yrotation Zrotation
				JOINT LeftFoot
				{
					OFFSET 0.021200 -31.938179 -4.336299
					CHANNELS 3 Xrotation Yrotation Zrotation
					JOINT LeftToeBase
					{
						OFFSET 0.943001 -26.722000 15.023500
						CHANNELS 3 Xrotation Yrotation Zrotation
						End Site
						{
							OFFSET 0 0 0
						}
					}
				}
			}
		}
	}
	JOINT RightUpLeg_virtual
	{
		OFFSET 0.000000 0.000000 0.000000
		CHANNELS 3 Xrotation Yrotation Zrotation
		JOINT RightUpLeg
		{
			OFFSET -18.735201 -5.666702 -4.541200
			CHANNELS 3 Xrotation Yrotation Zrotation
			JOINT RightLeg
			{
				OFFSET 0.018946 -31.938133 0.493100
				CHANNELS 3 Xrotation Yrotation Zrotation
				JOINT RightFoot
				{
					OFFSET -0.018946 -31.938126 -4.336299
					CHANNELS 3 Xrotation Yrotation Zrotation
					JOINT RightToeBase
					{
						OFFSET -0.943001 -26.722004 15.023500
						CHANNELS 3 Xrotation Yrotation Zrotation
						End Site
						{
							OFFSET 0 0 0
						}
					}
				}
			}
		}
	}
	JOINT Hips_virtual
	{
		OFFSET 0.000000 0.000000 0.000000
		CHANNELS 3 Xrotation Yrotation Zrotation
		JOINT Hips
		{
			OFFSET -0.000000 -0.000000 -0.000000
			CHANNELS 3 Xrotation Yrotation Zrotation
			JOINT Spine
			{
				OFFSET 0.000000 10.199997 -0.299500
				CHANNELS 3 Xrotation Yrotation Zrotation
				JOINT Spine1
				{
					OFFSET 0.000000 11.900002 -1.516600
					CHANNELS 3 Xrotation Yrotation Zrotation
					JOINT Spine2
					{
						OFFSET 0.000000 13.600006 -2.842500
						CHANNELS 3 Xrotation Yrotation Zrotation
						JOINT Neck_virtual
						{
							OFFSET 0.000000 0.000000 0.000000
							CHANNELS 3 Xrotation Yrotation Zrotation
							JOINT Neck
							{
								OFFSET 0.000000 9.624100 -2.890100
								CHANNELS 3 Xrotation Yrotation Zrotation
								JOINT Head
								{
									OFFSET 0.000000 14.068802 -1.351900
									CHANNELS 3 Xrotation Yrotation Zrotation
									End Site
									{
										OFFSET 0 0 0
									}
								}
							}
						}
						JOINT LeftShoulder_virtual
						{
							OFFSET 0.000000 0.000000 0.000000
							CHANNELS 3 Xrotation Yrotation Zrotation
							JOINT LeftShoulder
							{
								OFFSET 15.263000 10.923401 -0.547700
								CHANNELS 3 Xrotation Yrotation Zrotation
								JOINT LeftArm
								{
									OFFSET 25.438599 -2.830597 -13.032500
									CHANNELS 3 Xrotation Yrotation Zrotation
									JOINT LeftForeArm
									{
										OFFSET 29.960503 0.000000 0.000000
										CHANNELS 3 Xrotation Yrotation Zrotation
										JOINT LeftHand
										{
											OFFSET 27.849251 0.000000 0.000000
											CHANNELS 3 Xrotation Yrotation Zrotation
											End Site
											{
												OFFSET 0 0 0
											}
										}
									}
								}
							}
						}
						JOINT RightShoulder_virtual
						{
							OFFSET 0.000000 0.000000 0.000000
							CHANNELS 3 Xrotation Yrotation Zrotation
							JOINT RightShoulder
							{
								OFFSET -15.263000 10.923401 -0.547700
								CHANNELS 3 Xrotation Yrotation Zrotation
								JOINT RightArm
								{
									OFFSET -25.438599 -2.830597 -13.032500
									CHANNELS 3 Xrotation Yrotation Zrotation
									JOINT RightForeArm
									{
										OFFSET -29.960503 0.000000 0.000000
										CHANNELS 3 Xrotation Yrotation Zrotation
										JOINT RightHand
										{
											OFFSET -27.849251 0.000000 0.000000
											CHANNELS 3 Xrotation Yrotation Zrotation
											End Site
											{
												OFFSET 0 0 0
											}
										}
									}
								}
							}
						}
					}
				}
			}
		}
	}
}
MOTION
Frames: 5
Frame Time: 0.03333333
8.128110 89.593903 -11.527493 0.000000 0.000000 0.000000 18.768936 4.323664 -4.723148 -18.926299 15.880717 12.996440 51.752374 -0.183728 0.781895 -0.753051 -0.916305 -4.790651 0.000000 0.000000 0.000000 -2.624633 13.814339 5.899166 -34.210191 -1.493122 -8.737330 46.325044 -1.086627 -4.067641 -6.479019 -1.811150 3.469290 0.000000 0.000000 0.000000 2.773777 0.048993 0.168840 8.358994 16.669010 -7.786154 6.477273 -4.340446 1.551391 2.946070 -2.406345 1.046446 0.000000 0.000000 0.000000 2.895714 -2.833112 1.680752 -0.516214 -0.317706 1.333943 0.000000 0.000000 0.000000 4.038337 -1.655941 3.131078 -0.007735 -1.712896 7.838147 -48.368111 -27.229642 -53.288613 -56.428106 -84.450446 -53.117640 0.000000 0.000000 0.000000 1.703190 -4.469806 1.374019 -0.902004 -11.803608 6.079393 -36.747965 17.631445 45.775327 -159.822656 71.266057 156.779288 0.000000 0.000000 0.000000 
8.028557 90.252380 -12.150756 0.000000 0.000000 0.000000 17.288647 3.873562 -4.374184 -21.626860 15.450450 13.739858 55.927679 0.024747 0.983361 2.800257 -0.984276 -4.318910 0.000000 0.000000 0.000000 -1.810613 13.911872 5.907583 -32.962780 -1.585789 -8.535759 46.111027 -1.144494 -4.227505 -6.549250 -1.789375 3.132868 0.000000 0.000000 0.000000 2.890252 0.177151 0.069465 8.948302 16.422162 -7.997792 6.833569 -4.139360 1.386510 3.163711 -2.286094 0.957545 0.000000 0.000000 0.000000 3.035735 -2.770075 1.478350 -0.434233 -0.279277 1.206497 0.000000 0.000000 0.000000 4.003106 -1.654747 3.459999 0.062158 -2.104039 9.518844 -51.034364 -26.741251 -51.902457 -60.712247 -84.191473 -56.364674 0.000000 0.000000 0.000000 1.573379 -4.433511 0.950846 -1.153740 -11.566694 4.012277 -40.252555 17.247592 45.246974 -160.280224 69.609463 156.275425 0.000000 0.000000 0.000000 
7.895385 90.746582 -12.719193 0.000000 0.000000 0.000000 15.758734 3.254533 -3.999703 -24.414279 14.947596 14.499698 59.900021 0.383222 1.258250 6.159134 -0.913515 -3.592794 0.000000 0.000000 0.000000 -0.994621 13.836222 5.912293 -31.750899 -1.724007 -8.366151 45.871052 -1.225857 -4.397498 -6.705562 -1.791806 2.775507 0.000000 0.000000 0.000000 3.010268 0.304934 -0.026808 9.493849 15.999781 -8.170520 7.200383 -3.947332 1.151291 3.392122 -2.172203 0.829845 0.000000 0.000000 0.000000 3.175785 -2.706081 1.271051 -0.353966 -0.249209 1.077496 0.000000 0.000000 0.000000 4.013201 -1.622026 3.783313 0.148297 -2.426544 11.141264 -53.329021 -26.291615 -50.187438 -62.238712 -83.887434 -56.832150 0.000000 0.000000 0.000000 1.481102 -4.403639 0.506142 -1.397274 -11.390331 1.863299 -43.303092 16.851113 44.691663 -160.730990 68.078066 155.842213 0.000000 0.000000 0.000000 
7.731347 91.107346 -13.194552 0.000000 0.000000 0.000000 14.212833 2.571950 -3.612642 -27.188755 14.400197 15.255771 63.492865 0.871356 1.581350 9.184399 -0.699606 -2.659837 0.000000 0.000000 0.000000 -0.199731 13.566672 5.917705 -30.606528 -1.911412 -8.229401 45.517962 -1.320253 -4.563632 -7.008941 -1.819987 2.427035 0.000000 0.000000 0.000000 3.122541 0.436012 -0.117057 9.953568 15.429063 -8.308841 7.554670 -3.764034 0.845219 3.614688 -2.064661 0.663886 0.000000 0.000000 0.000000 3.286900 -2.642066 1.075635 -0.290170 -0.229166 0.957498 0.000000 0.000000 0.000000 4.066521 -1.557886 4.078096 0.242712 -2.671435 12.591538 -55.138136 -25.889443 -48.252052 -61.069623 -83.550132 -54.639888 0.000000 0.000000 0.000000 1.424589 -4.368931 0.068329 -1.627652 -11.246521 -0.220280 -45.765375 16.441269 44.067178 -161.083304 66.849684 155.407513 0.000000 0.000000 0.000000 
7.543313 91.381645 -13.551411 0.000000 0.000000 0.000000 12.691626 1.929882 -3.233289 -29.842613 13.843191 15.975568 66.547899 1.435592 1.925180 11.757547 -0.377431 -1.606531 0.000000 0.000000 0.000000 0.562586 13.100013 5.931892 -29.540278 -2.149226 -8.117974 44.984961 -1.416475 -4.709068 -7.494865 -1.874346 2.120770 0.000000 0.000000 0.000000 3.221685 0.570463 -0.197925 10.310982 14.743105 -8.416516 7.878078 -3.585048 0.474833 3.817202 -1.961174 0.463935 0.000000 0.000000 0.000000 3.348917 -2.573606 0.906839 -0.253555 -0.217099 0.855705 0.000000 0.000000 0.000000 4.159359 -1.463049 4.317538 0.336907 -2.830405 13.742528 -56.351748 -25.518963 -46.257036 -57.482770 -83.148913 -50.143001 0.000000 0.000000 0.000000 1.406048 -4.314534 -0.329208 -1.830401 -11.093714 -2.069121 -47.538520 16.030515 43.343185 -161.241027 66.117939 154.896041 0.000000 0.000000 0.000000 
